# xmcd
#
# Track frame offsets: 
#        150
#        19918
#        35791
#        55975
#        73031
#        91610
#        103868
#        117357
#        131922
#        150267
#        166302
#        189910
#        208993
#        233926
#
# Disc length: 3364 seconds
#
# Revision: 0
# Processed by: cddbd v1.5.2PL0 Copyright (c) Steve Scherf et al.
# Submitted via: ExactAudioCopy v0.99pb3
#
DISCID=c20d220e
DTITLE=Agnese Johnson - Particolari
DYEAR=1998
DGENRE=Vocal
TTITLE0=Ho scelto questa strada
TTITLE1=Sarà la primavera?
TTITLE2=Sola
TTITLE3=A giorni io
TTITLE4=Un'isola
TTITLE5=Compleanno
TTITLE6=Già allora
TTITLE7=Mondo a pois
TTITLE8=Lo sai chi sei
TTITLE9=Io ti penserò
TTITLE10=Gratitudine
TTITLE11=Michele
TTITLE12=Sensazioni
TTITLE13=Ho scelto questa strada (rmx)
EXTD=
EXTT0=
EXTT1=
EXTT2=
EXTT3=
EXTT4=
EXTT5=
EXTT6=
EXTT7=
EXTT8=
EXTT9=
EXTT10=
EXTT11=
EXTT12=
EXTT13=
PLAYORDER=
